<?xml version="1.0" encoding="utf-8"?>
<!--author: ROBERTO ZAPATA CALIDNIO - HONDURAS - 2020 - rzapata@mapfre.com.hn - imzapatta@gmail.com - COLOR PANTONE 485 C2 WITH HEX #DA291C-->
<!DOCTYPE svg PUBLIC "-//W3C//DTD SVG 1.1//EN" "http://www.w3.org/Graphics/SVG/1.1/DTD/svg11.dtd">
<svg version="1.1" id="Capa_1" xmlns="http://www.w3.org/2000/svg" xmlns:xlink="http://www.w3.org/1999/xlink" x="0px" y="0px"
	 width="200px" height="24.75px" viewBox="0 0 200 24.75" enable-background="new 0 0 200 24.75" xml:space="preserve">
<g>
	<path fill-rule="evenodd" clip-rule="evenodd" fill="#DA291C" d="M16.345,8.297c1.736,0.248,3.153,2.744,3.383,4.162
		c0.177,0.957-0.532,1.984-1.258,1.984h-2.125v-1.117h1.86c1.328-0.424-0.726-3.347-1.399-3.771
		c-0.16-0.125-0.319-0.194-0.461-0.177V8.297z M14.521,6.986c0.672,0.249,1.239,0.673,1.541,1.293c0.088,0,0.195,0,0.283,0.018
		v1.081c-0.124,0-0.213,0.052-0.283,0.177l-1.541,2.604V9.979C14.805,9.448,15,8.97,15,8.633c-0.142-0.161-0.301-0.284-0.479-0.408
		V6.986L14.521,6.986z M16.345,14.442h-1.824v-1.117h1.824V14.442z M12.308,6.649c0.761-0.018,1.541,0.088,2.214,0.336v1.239
		c-0.585-0.336-1.417-0.477-2.214-0.477V6.649L12.308,6.649z M14.521,14.442h-1.683v3.47h-0.531v-4.551
		c0.106-0.018,0.249-0.106,0.336-0.283c0.549-0.975,1.364-2.143,1.877-3.1v2.179l-0.213,0.371c-0.159,0.231-0.495,0.797,0,0.797
		h0.213V14.442z M11.74,14.442h-1.664v-1.117h0.194c0.496,0,0.16-0.566,0-0.797l-0.194-0.353V9.855
		c0.496,1.027,1.311,2.321,1.895,3.224c0.071,0.195,0.195,0.283,0.336,0.283v4.551H11.74V14.442L11.74,14.442z M10.077,7.022
		c0.638-0.212,1.434-0.354,2.231-0.373v1.099c-0.886,0-1.735,0.176-2.231,0.406V7.022z M10.077,14.442H8.234v-1.117h1.842V14.442
		L10.077,14.442z M8.234,8.297C8.323,8.279,8.43,8.279,8.518,8.279c0-0.496,0.638-0.956,1.559-1.257v1.133
		c-0.301,0.142-0.479,0.3-0.479,0.479c0.053,0.284,0.23,0.727,0.479,1.222v2.321L8.518,9.554c-0.07-0.125-0.159-0.177-0.283-0.177
		V8.297z M8.234,14.442H6.163c-0.656,0-1.558-0.851-1.293-1.984c0.018,0,0.762-3.896,3.365-4.162v1.081
		C8.093,9.36,7.933,9.429,7.774,9.554c-0.673,0.425-2.728,3.348-1.399,3.771h1.859V14.442z"/>
	<path fill-rule="evenodd" clip-rule="evenodd" fill="#DA291C" d="M11.74,14.442H6.163c-0.656,0-1.558-0.851-1.293-1.984
		c0.018,0,0.815-4.18,3.648-4.18c0-1.541,6.216-2.727,7.545,0c1.859,0,3.417,2.692,3.666,4.18c0.177,0.957-0.532,1.984-1.258,1.984
		h-5.632v3.47H11.74V14.442L11.74,14.442z M14.309,13.326c-0.495,0-0.159-0.566,0-0.797l1.754-2.975c0.142-0.266,0.46-0.23,0.744,0
		c0.673,0.425,2.727,3.348,1.399,3.771H14.309L14.309,13.326z M9.598,8.633c0-0.833,4.162-1.488,5.402,0
		c0,0.957-1.487,2.922-2.356,4.445c-0.195,0.372-0.531,0.354-0.673,0C11.104,11.733,9.758,9.554,9.598,8.633L9.598,8.633z
		 M10.271,13.326c0.496,0,0.16-0.566,0-0.797L8.518,9.554c-0.142-0.266-0.46-0.23-0.743,0c-0.673,0.425-2.728,3.348-1.399,3.771
		H10.271z"/>
</g>
<path fill-rule="evenodd" clip-rule="evenodd" fill="#DA291C" d="M12.29,1c6.198,0,11.263,5.083,11.263,11.299
	c0,6.233-5.065,11.316-11.263,11.316v-1.149c5.579,0,10.113-4.57,10.113-10.167c0-5.579-4.534-10.147-10.113-10.147V1z
	 M12.29,23.615c-6.216,0-11.264-5.083-11.264-11.316C1.026,6.083,6.074,1,12.29,1v1.151c-5.579,0-10.13,4.569-10.13,10.147
	c0,5.597,4.552,10.167,10.13,10.167V23.615z"/>
<polygon fill-rule="evenodd" clip-rule="evenodd" fill="#DA291C" points="48.563,23.615 40.24,23.615 40.24,1 48.563,1 
	54.089,12.281 59.525,1 67.902,1 67.902,23.615 59.525,23.615 59.525,12.281 54.089,23.615 48.563,12.281 "/>
<g>
	<path fill-rule="evenodd" clip-rule="evenodd" fill="#DA291C" d="M84.32,19.824h4.463l1.062,3.791h8.306L91.669,1H84.32v3.436
		l3.382,11.689H84.32V19.824z M70.524,23.615h8.323l1.028-3.791h4.445v-3.699h-3.383L84.32,4.436V1H76.97L70.524,23.615z"/>
	<path fill-rule="evenodd" clip-rule="evenodd" fill="#DA291C" d="M70.524,23.615h8.323l1.028-3.791h8.909l1.062,3.791h8.306
		L91.669,1h-14.7L70.524,23.615L70.524,23.615z M80.938,16.125h6.765L84.32,4.436L80.938,16.125z"/>
</g>
<g>
	<path fill-rule="evenodd" clip-rule="evenodd" fill="#DA291C" d="M111.875,1h4.5c3.666,0,6.481,3.258,6.519,6.712
		c0.053,2.869-2.303,6.447-6.519,6.447h-4.5v-3.861c1.508-0.265,2.835-2.09,2.835-3.436c0-1.877-1.202-2.94-2.835-3.188V1z
		 M109.06,23.615h-8.322V1h11.138v2.674c-0.211-0.018-0.442-0.035-0.688-0.035h-2.128v6.676h2.479c0.107,0,0.232,0,0.336-0.018
		v3.861h-2.815V23.615z"/>
	<path fill-rule="evenodd" clip-rule="evenodd" fill="#DA291C" d="M109.06,23.615h-8.322V1h15.638c3.666,0,6.481,3.258,6.519,6.712
		c0.053,2.869-2.303,6.447-6.519,6.447h-7.315V23.615L109.06,23.615z M109.06,3.64v6.676h2.479c1.63,0,3.171-2.001,3.171-3.453
		c0-2.125-1.541-3.223-3.522-3.223H109.06z"/>
</g>
<polygon fill-rule="evenodd" clip-rule="evenodd" fill="#DA291C" points="125.637,1 147.722,1 147.722,4.701 133.997,4.701 
	133.997,10.315 147.722,10.315 147.722,14.159 133.997,14.159 133.997,23.615 125.637,23.615 "/>
<polygon fill-rule="evenodd" clip-rule="evenodd" fill="#DA291C" points="175.898,1 198,1 198,4.701 184.187,4.701 184.187,10.315 
	198,10.315 198,14.159 184.187,14.159 184.187,19.824 198,19.824 198,23.615 175.898,23.615 "/>
<g>
	<path fill-rule="evenodd" clip-rule="evenodd" fill="#DA291C" d="M161.872,1h5.755c3.064,0,5.331,3.188,5.172,6.004
		c-0.142,2.815-2.709,5.277-5.172,5.277c2.534,0,4.977,2.657,5.208,5.259v6.075h-8.289V17.54c0-1.718-1.133-2.638-2.674-3.063V10.28
		c1.646-0.284,2.674-2.355,2.674-3.471c0-1.718-1.221-2.994-2.674-3.188V1z M159.215,23.615h-8.518V1h11.175v2.622
		c-0.125-0.019-0.266-0.036-0.39-0.036h-2.268v6.729h2.268c0.142,0,0.265,0,0.39-0.035v4.197c-0.815-0.23-1.736-0.319-2.657-0.319
		V23.615z"/>
	<path fill-rule="evenodd" clip-rule="evenodd" fill="#DA291C" d="M159.215,23.615h-8.518V1h16.93c3.064,0,5.331,3.188,5.172,6.004
		c-0.142,2.815-2.709,5.277-5.172,5.277c2.534,0,4.977,2.657,5.208,5.259v6.075h-8.289V17.54c0-2.638-2.709-3.381-5.331-3.381
		V23.615L159.215,23.615z M161.482,3.586h-2.268v6.729h2.268c1.86,0,3.063-2.302,3.063-3.506
		C164.546,4.931,163.076,3.586,161.482,3.586z"/>
</g>
</svg>
