<?xml version="1.0" encoding="utf-8"?>
<!--author: ROBERTO ZAPATA CALIDNIO - HONDURAS - 2020 - rzapata@mapfre.com.hn - imzapatta@gmail.com - COLOR PANTONE 485 C2 WITH HEX #DA291C-->
<!DOCTYPE svg PUBLIC "-//W3C//DTD SVG 1.1//EN" "http://www.w3.org/Graphics/SVG/1.1/DTD/svg11.dtd">
<svg version="1.1" id="Capa_1" xmlns="http://www.w3.org/2000/svg" xmlns:xlink="http://www.w3.org/1999/xlink" x="0px" y="0px"
	 width="535px" height="71.167px" viewBox="0 0 535 71.167" enable-background="new 0 0 535 71.167" xml:space="preserve">
<g>
	<g>
		<path fill-rule="evenodd" clip-rule="evenodd" fill="#DA291C" d="M44.604,25.337c4.417,0.631,8.022,6.985,8.608,10.591
			c0.451,2.434-1.352,5.048-3.2,5.048h-5.408v-2.84h4.732c3.381-1.082-1.848-8.518-3.56-9.6c-0.406-0.315-0.812-0.496-1.172-0.451
			V25.337z M39.961,22.001c1.712,0.631,3.155,1.712,3.921,3.29c0.226,0,0.496,0,0.721,0.045v2.749c-0.315,0-0.541,0.135-0.721,0.451
			l-3.921,6.625v-5.543c0.721-1.352,1.217-2.569,1.217-3.425c-0.361-0.406-0.766-0.721-1.217-1.037V22.001L39.961,22.001z
			 M44.604,40.976h-4.642v-2.84h4.642V40.976z M34.328,21.145c1.938-0.045,3.921,0.226,5.634,0.856v3.155
			c-1.487-0.856-3.606-1.217-5.634-1.217V21.145L34.328,21.145z M39.961,40.976H35.68v8.833h-1.352V38.227
			c0.27-0.045,0.631-0.271,0.856-0.721c1.397-2.479,3.471-5.453,4.778-7.887v5.543l-0.541,0.947c-0.406,0.586-1.262,2.028,0,2.028
			h0.541V40.976z M32.885,40.976h-4.236v-2.84h0.496c1.262,0,0.406-1.442,0-2.028l-0.496-0.901v-5.904
			c1.262,2.614,3.335,5.904,4.822,8.203c0.18,0.496,0.496,0.721,0.856,0.721V49.81h-1.442V40.976L32.885,40.976z M28.649,22.092
			c1.622-0.541,3.65-0.901,5.679-0.947v2.794c-2.254,0-4.417,0.451-5.679,1.037V22.092z M28.649,40.976h-4.688v-2.84h4.688V40.976
			L28.649,40.976z M23.961,25.337c0.226-0.045,0.496-0.045,0.721-0.045c0-1.262,1.623-2.434,3.966-3.2v2.884
			c-0.766,0.361-1.217,0.766-1.217,1.217c0.135,0.721,0.586,1.848,1.217,3.11v5.904l-3.966-6.67
			c-0.18-0.315-0.406-0.451-0.721-0.451V25.337z M23.961,40.976h-5.273c-1.668,0-3.966-2.164-3.29-5.048
			c0.045,0,1.938-9.916,8.563-10.591v2.749c-0.36-0.045-0.766,0.135-1.172,0.451c-1.712,1.082-6.941,8.518-3.56,9.6h4.732V40.976z"
			/>
		<path fill-rule="evenodd" clip-rule="evenodd" fill="#DA291C" d="M32.885,40.976H18.688c-1.668,0-3.966-2.164-3.29-5.048
			c0.045,0,2.073-10.637,9.284-10.637c0-3.921,15.819-6.94,19.2,0c4.732,0,8.698,6.851,9.33,10.637
			c0.451,2.434-1.352,5.048-3.2,5.048H35.68v8.833h-2.794V40.976L32.885,40.976z M39.42,38.136c-1.262,0-0.406-1.442,0-2.028
			l4.462-7.572c0.36-0.676,1.172-0.586,1.893,0c1.712,1.082,6.941,8.518,3.56,9.6H39.42L39.42,38.136z M27.432,26.193
			c0-2.118,10.592-3.786,13.747,0c0,2.434-3.786,7.437-5.995,11.313c-0.496,0.946-1.352,0.901-1.712,0
			C31.263,34.08,27.837,28.537,27.432,26.193L27.432,26.193z M29.145,38.136c1.262,0,0.406-1.442,0-2.028l-4.462-7.572
			c-0.361-0.676-1.172-0.586-1.893,0c-1.712,1.082-6.941,8.518-3.56,9.6H29.145z"/>
	</g>
	<path fill-rule="evenodd" clip-rule="evenodd" fill="#DA291C" d="M34.282,6.768c15.775,0,28.665,12.935,28.665,28.754
		c0,15.864-12.89,28.799-28.665,28.799v-2.929c14.197,0,25.735-11.628,25.735-25.87c0-14.197-11.539-25.825-25.735-25.825V6.768z
		 M34.282,64.322c-15.819,0-28.664-12.935-28.664-28.799c0-15.819,12.845-28.754,28.664-28.754v2.93
		c-14.196,0-25.78,11.628-25.78,25.825c0,14.242,11.583,25.87,25.78,25.87V64.322z"/>
	<polygon fill-rule="evenodd" clip-rule="evenodd" fill="#DA291C" points="126.593,64.322 105.41,64.322 105.41,6.768 
		126.593,6.768 140.655,35.477 154.491,6.768 175.809,6.768 175.809,64.322 154.491,64.322 154.491,35.477 140.655,64.322 
		126.593,35.477 	"/>
	<g>
		<path fill-rule="evenodd" clip-rule="evenodd" fill="#DA291C" d="M217.589,54.677h11.358l2.704,9.645h21.138L236.293,6.768
			h-18.704v8.743l8.608,29.746h-8.608V54.677z M182.479,64.322h21.183l2.614-9.645h11.313v-9.42h-8.608l8.608-29.746V6.768h-18.704
			L182.479,64.322z"/>
		<path fill-rule="evenodd" clip-rule="evenodd" fill="#DA291C" d="M182.479,64.322h21.183l2.614-9.645h22.671l2.704,9.645h21.138
			L236.293,6.768h-37.408L182.479,64.322L182.479,64.322z M208.98,45.257h17.217l-8.608-29.746L208.98,45.257z"/>
	</g>
	<g>
		<path fill-rule="evenodd" clip-rule="evenodd" fill="#DA291C" d="M287.717,6.768h11.448c9.329,0,16.495,8.293,16.586,17.082
			c0.135,7.301-5.859,16.405-16.586,16.405h-11.448V30.43c3.831-0.676,7.212-5.318,7.212-8.744c0-4.777-3.065-7.481-7.212-8.112
			V6.768z M280.551,64.322h-21.183V6.768h28.349v6.806c-0.541-0.045-1.126-0.09-1.757-0.09h-5.409v16.991h6.31
			c0.271,0,0.586,0,0.856-0.045v9.825h-7.166V64.322z"/>
		<path fill-rule="evenodd" clip-rule="evenodd" fill="#DA291C" d="M280.551,64.322h-21.183V6.768h39.797
			c9.329,0,16.495,8.293,16.586,17.082c0.135,7.301-5.859,16.405-16.586,16.405h-18.614V64.322L280.551,64.322z M280.551,13.483
			v16.991h6.31c4.146,0,8.068-5.093,8.068-8.789c0-5.408-3.922-8.203-8.969-8.203H280.551z"/>
	</g>
	<polygon fill-rule="evenodd" clip-rule="evenodd" fill="#DA291C" points="322.736,6.768 378.938,6.768 378.938,16.188 
		344.009,16.188 344.009,30.475 378.938,30.475 378.938,40.255 344.009,40.255 344.009,64.322 322.736,64.322 	"/>
	<polygon fill-rule="evenodd" clip-rule="evenodd" fill="#DA291C" points="450.645,6.768 506.891,6.768 506.891,16.188 
		471.736,16.188 471.736,30.475 506.891,30.475 506.891,40.255 471.736,40.255 471.736,54.677 506.891,54.677 506.891,64.322 
		450.645,64.322 	"/>
	<g>
		<path fill-rule="evenodd" clip-rule="evenodd" fill="#DA291C" d="M414.948,6.768h14.647c7.798,0,13.566,8.112,13.161,15.278
			c-0.36,7.167-6.896,13.431-13.161,13.431c6.446,0,12.665,6.761,13.251,13.386v15.458h-21.093V48.863
			c0-4.372-2.884-6.715-6.806-7.797V30.385c4.192-0.721,6.806-5.995,6.806-8.834c0-4.372-3.109-7.617-6.806-8.112V6.768z
			 M408.188,64.322H386.51V6.768h28.438v6.67c-0.314-0.045-0.676-0.09-0.991-0.09h-5.769v17.126h5.769c0.36,0,0.677,0,0.991-0.09
			v10.681c-2.072-0.586-4.416-0.811-6.76-0.811V64.322z"/>
		<path fill-rule="evenodd" clip-rule="evenodd" fill="#DA291C" d="M408.188,64.322H386.51V6.768h43.086
			c7.798,0,13.566,8.112,13.161,15.278c-0.36,7.167-6.896,13.431-13.161,13.431c6.446,0,12.665,6.761,13.251,13.386v15.458h-21.093
			V48.863c0-6.715-6.896-8.608-13.565-8.608V64.322L408.188,64.322z M413.957,13.348h-5.769v17.126h5.769
			c4.732,0,7.797-5.859,7.797-8.924C421.754,16.773,418.013,13.348,413.957,13.348z"/>
	</g>
</g>
</svg>
